<svg xmlns="http://www.w3.org/2000/svg" width="225" height="223" viewBox="0 0 225.3 222.7"><style>.a{fill:#DB7272;}.b{fill:#CC4E4E;}.c{fill:#FFF;}</style><path d="M168.5 7.9l-3.5-3.5c-7.8 7.8-18.7 8.5-26.5 0.7l-27.6 27.6c4.3 5.7 3.9 13.8-1.3 19 -0.9 0.9-1.8 1.6-2.8 2.2 4.8 5.7 4.5 14.2-0.9 19.5 -2.6 2.6-6 4-9.4 4.2 1.1 4.7-0.1 9.9-3.8 13.6 -3.7 3.7-8.9 5-13.6 3.8 -0.2 3.4-1.6 6.8-4.2 9.4 -5.3 5.3-13.7 5.6-19.4 1 -0.5 0.7-1 1.4-1.7 2 -5.2 5.2-13.3 5.6-19 1.3L7.3 136.3c7.8 7.8 7.8 18-0.7 26.5l3.6 3.6c0 0 0.1-0.1 0.1-0.1 2.1-2.1 5.6-2.1 7.8 0 2.1 2.1 2.1 5.6 0 7.8 0 0-0.1 0.1-0.1 0.1l2.8 2.8c0 0 0.1-0.1 0.1-0.1 2.1-2.1 5.6-2.1 7.8 0 2.1 2.1 2.1 5.6 0 7.8 0 0-0.1 0.1-0.1 0.1l2.8 2.8c0 0 0.1-0.1 0.1-0.1 2.1-2.1 5.6-2.1 7.8 0 2.1 2.1 2.1 5.6 0 7.8 0 0-0.1 0.1-0.1 0.1l2.8 2.8c0 0 0.1-0.1 0.1-0.1 2.1-2.1 5.6-2.1 7.8 0 2.1 2.1 2.1 5.6 0 7.8 0 0-0.1 0.1-0.1 0.1l2.8 2.8c0 0 0.1-0.1 0.1-0.1 2.1-2.1 5.6-2.1 7.8 0 2.1 2.1 2.1 5.6 0 7.8 0 0-0.1 0.1-0.1 0.1l2.5 2.5c8.5-8.5 18.7-8.5 27.2 0L221.2 87.8c-8.5-8.5-7.8-19.4 0-27.2l-2.5-2.5c-2.2 2.1-5.6 2-7.7-0.1 -2.1-2.1-2.1-5.5-0.1-7.7l-2.8-2.8c-2.2 2.1-5.6 2-7.7-0.1 -2.1-2.1-2.1-5.5-0.1-7.7l-2.8-2.8c-2.2 2.1-5.6 2-7.7-0.1 -2.1-2.1-2.1-5.5-0.1-7.7l-2.8-2.8c-2.2 2.1-5.6 2-7.7-0.1 -2.1-2.1-2.1-5.5-0.1-7.7l-2.8-2.8c-2.2 2.1-5.6 2-7.7-0.1C166.5 13.5 166.4 10.1 168.5 7.9z" class="a"/><path d="M170.6 5.8c-1.2-1.2-2.4-2.4-3.5-3.5 -1.2-1.2-3.1-1.1-4.2 0 -6.7 6.3-15.4 7.1-22.3 0.7 -1.2-1.1-3.1-1.2-4.2 0 -9.2 9.2-18.4 18.4-27.6 27.6 -0.9 0.9-1.2 2.5-0.5 3.6 4 5.8 3 13.1-3.1 17.1 -1.2 0.8-2.1 2.8-1.1 4.1 5.7 7.5 2.2 18.2-7.7 19.2 -2 0.2-3.3 1.7-2.9 3.8 1.6 8.4-5.4 15.4-13.8 13.8 -2.1-0.4-3.6 0.9-3.8 2.9 -1.1 9.8-11.6 13.3-19.1 7.9 -1.4-1-3.2-0.1-4.1 1.1 -4.1 5.5-11.1 5.9-16.5 2.2 -1.1-0.8-2.7-0.4-3.6 0.5 -9.2 9.2-18.3 18.3-27.5 27.5 -1.2 1.2-1.1 3 0 4.2 6.7 7.1 5.8 15.4-0.7 22.3 -1.1 1.2-1.2 3.1 0 4.2 1.2 1.2 2.4 2.4 3.6 3.6 1.1 1.1 3.1 1.2 4.2 0 2.4-2.6 6.1 1.2 3.5 3.5 -1.2 1.1-1.1 3.1 0 4.2 0.9 0.9 1.9 1.9 2.8 2.8 1.1 1.1 3.1 1.2 4.2 0 2.4-2.6 6.1 1.2 3.5 3.5 -1.2 1.1-1.1 3.1 0 4.2 0.9 0.9 1.9 1.9 2.8 2.8 1.1 1.1 3.1 1.2 4.2 0 2.4-2.6 6.1 1.2 3.5 3.5 -1.2 1.1-1.1 3.1 0 4.2 0.9 0.9 1.9 1.9 2.8 2.8 1.1 1.1 3.1 1.2 4.2 0 2.3-2.5 6.2 1.1 3.5 3.5 -1.2 1.1-1.1 3.1 0 4.2 0.9 0.9 1.9 1.9 2.8 2.8 1.1 1.1 3.1 1.2 4.2 0 2.3-2.6 6.1 1.2 3.5 3.5 -1.2 1.1-1.1 3.1 0 4.2 0.8 0.8 1.7 1.7 2.5 2.5 1.2 1.2 3.1 1.1 4.2 0 7.3-6.9 15.6-6.9 23 0 1.2 1.1 3.1 1.2 4.2 0 35.2-35.2 70.4-70.4 105.6-105.6 8.5-8.5 17.1-17.1 25.6-25.6 1.2-1.2 1.1-3 0-4.2 -6.6-7.1-6.7-15.9 0-23 1.1-1.2 1.2-3.1 0-4.2 -0.8-0.8-1.7-1.7-2.5-2.5 -0.9-0.9-2.6-1.3-3.6-0.5 -3.1 2.4-6-0.5-3.7-3.7 0.8-1.1 0.4-2.8-0.5-3.6 -0.9-0.9-1.9-1.9-2.8-2.8 -0.9-0.9-2.6-1.3-3.6-0.5 -3.1 2.4-6-0.5-3.7-3.7 0.8-1.1 0.4-2.8-0.5-3.6 -0.9-0.9-1.9-1.9-2.8-2.8 -0.9-0.9-2.6-1.3-3.6-0.5 -3.1 2.4-6-0.5-3.7-3.7 0.8-1.1 0.4-2.8-0.5-3.6 -0.9-0.9-1.9-1.9-2.8-2.8 -0.9-0.9-2.6-1.3-3.6-0.5 -3.1 2.4-6-0.5-3.7-3.7 0.8-1.1 0.4-2.8-0.5-3.6 -0.9-0.9-1.9-1.9-2.8-2.8 -0.9-0.9-2.6-1.3-3.6-0.5 -3.1 2.4-6-0.5-3.7-3.7 2.3-3.1-2.9-6.1-5.2-3 -6 7.9 4 17.9 11.9 11.9 -1.2-0.2-2.4-0.3-3.6-0.5 0.9 0.9 1.9 1.9 2.8 2.8 -0.2-1.2-0.3-2.4-0.5-3.6 -6 7.9 4 17.9 11.9 11.9 -1.2-0.2-2.4-0.3-3.6-0.5 0.9 0.9 1.9 1.9 2.8 2.8 -0.2-1.2-0.3-2.4-0.5-3.6 -6 7.9 4 17.9 11.9 11.9 -1.2-0.2-2.4-0.3-3.6-0.5 0.9 0.9 1.9 1.9 2.8 2.8 -0.2-1.2-0.3-2.4-0.5-3.6 -6 7.9 4 17.9 11.9 11.9 -1.2-0.2-2.4-0.3-3.6-0.5 0.9 0.9 1.9 1.9 2.8 2.8 -0.2-1.2-0.3-2.4-0.5-3.6 -6 7.9 4 17.9 11.9 11.9 -1.2-0.2-2.4-0.3-3.6-0.5 0.8 0.8 1.7 1.7 2.5 2.5 0-1.4 0-2.8 0-4.2 -8.9 9.5-8.9 21.9 0 31.4 0-1.4 0-2.8 0-4.2 -35.2 35.2-70.4 70.4-105.6 105.6 -8.5 8.5-17.1 17.1-25.6 25.6 1.4 0 2.8 0 4.2 0 -9.7-9.2-21.7-9.2-31.4 0 1.4 0 2.8 0 4.2 0 -0.8-0.8-1.7-1.7-2.5-2.5 0 1.4 0 2.8 0 4.2 8.2-7.5-4.5-20.2-12-12 1.4 0 2.8 0 4.2 0 -0.9-0.9-1.9-1.9-2.8-2.8 0 1.4 0 2.8 0 4.2 8.2-7.5-4.6-20.2-12-12 1.4 0 2.8 0 4.2 0 -0.9-0.9-1.9-1.9-2.8-2.8 0 1.4 0 2.8 0 4.2 8.3-7.4-4.6-20.3-12-12 1.4 0 2.8 0 4.2 0 -0.9-0.9-1.9-1.9-2.8-2.8 0 1.4 0 2.8 0 4.2 8.2-7.5-4.5-20.2-12-12 1.4 0 2.8 0 4.2 0 -0.9-0.9-1.9-1.9-2.8-2.8 0 1.4 0 2.8 0 4.2 8.3-7.4-4.6-20.3-12-12 1.4 0 2.8 0 4.2 0 -1.2-1.2-2.4-2.4-3.6-3.6 0 1.4 0 2.8 0 4.2 8.8-9.3 9.6-21.2 0.7-30.7 0 1.4 0 2.8 0 4.2 9.2-9.2 18.3-18.3 27.5-27.5 -1.2 0.2-2.4 0.3-3.6 0.5 8.4 5.7 18.7 3.6 24.7-4.4 -1.4 0.4-2.7 0.7-4.1 1.1 11.6 8.5 26.6 0.8 28.1-13 -1.3 1-2.5 1.9-3.8 2.9 13.1 2.5 23.6-8.1 21.2-21.2 -1 1.3-1.9 2.5-2.9 3.8 13.8-1.5 21.6-16.7 12.9-28.3 -0.4 1.4-0.7 2.7-1.1 4.1 8.7-5.6 11.1-16.7 5.2-25.3 -0.2 1.2-0.3 2.4-0.5 3.6 9.2-9.2 18.4-18.4 27.6-27.6 -1.4 0-2.8 0-4.2 0 9.3 8.7 21.6 7.8 30.7-0.7 -1.4 0-2.8 0-4.2 0 1.2 1.2 2.4 2.4 3.6 3.5C169.1 12.8 173.4 8.5 170.6 5.8z" class="b"/><path d="M131.2 40l-21.2 21.2c0.6 4.3-0.8 8.8-4.1 12.1 -2.6 2.6-6 4-9.4 4.2 1.1 4.7-0.1 9.9-3.8 13.6 -3.7 3.7-8.9 5-13.6 3.8 -0.2 3.4-1.6 6.8-4.2 9.4 -3.3 3.3-7.8 4.7-12.1 4.1l-20.7 20.7c-4.1 4.1-4.5 10.9-0.4 15l40.9 40.9c4.1 4.1 11 3.8 15.1-0.3l89.2-89.2c4.1-4.1 4.4-11 0.2-15.1l-40.9-40.9C142 35.5 135.3 35.9 131.2 40z" class="a"/><path d="M129 37.9c-5 5-10 10-15 15 -2 2-4 4-6 6 -1.4 1.4-0.9 3.3-0.9 5.1 -0.1 5.7-5.3 9.9-10.6 10.5 -2 0.2-3.3 1.7-2.9 3.8 1.6 8.4-5.4 15.4-13.8 13.8 -2.1-0.4-3.6 0.9-3.8 2.9 -0.5 4.3-2.7 7.4-6.4 9.5 -2.7 1.6-6.1 0-8.5 1.4 -1.7 1-3.1 2.9-4.4 4.3 -5.2 5.2-10.3 10.3-15.5 15.5 -5.9 5.9-7.7 13.9-1.8 20.6 2.5 2.9 5.5 5.5 8.2 8.2 10.2 10.2 20.4 20.4 30.6 30.6 4.4 4.4 9.2 7 15.7 5.3 3.4-0.9 5.8-3.5 8.3-6 19.6-19.6 39.1-39.1 58.7-58.7 8.3-8.3 16.7-16.7 25-25 2.2-2.2 4.3-4.1 5.7-6.9 3.2-6.2 0.6-12.5-3.9-17 -9.4-9.4-18.8-18.8-28.2-28.2 -3.6-3.6-7.1-7.1-10.7-10.7C143 32.3 135 32.7 129 37.9c-2.9 2.6 1.4 6.8 4.2 4.2 6.5-5.8 11.3 0.2 15.7 4.6 5.3 5.3 10.5 10.5 15.8 15.8 5.2 5.2 10.4 10.4 15.6 15.6 4.3 4.3 9.8 9.1 4.3 15.4 -4.7 5.4-10.2 10.2-15.3 15.3 -11 11-21.9 21.9-32.9 32.9 -10.3 10.3-20.6 20.6-30.9 30.9 -4.6 4.6-13.9 17.6-21.2 10.3 -9-9-17.9-17.9-26.9-26.9 -4.2-4.2-8.4-8.4-12.6-12.6 -1.9-1.9-3.1-3.7-3.2-6.6 -0.1-3.5 2.9-5.9 5.1-8.1 5.5-5.5 11.1-11.1 16.6-16.6 0.3-0.3 0.6-0.6 0.9-0.9 1-1-0.3 0.5-0.2 0.5 3 0.2 5.9-0.8 8.6-2 5.8-2.6 8.7-8.8 9.4-14.7 -1.3 1-2.5 1.9-3.8 2.9 13.1 2.5 23.6-8.1 21.2-21.2 -1 1.3-1.9 2.5-2.9 3.8 6.8-0.7 13.3-4.6 15.6-11.4 0.6-1.7 0.8-3.3 1-5 0.3-2.9-1.1-0.6-0.7-1 1.1-1.1 2.3-2.3 3.4-3.4 5.8-5.8 11.6-11.6 17.5-17.5C136 39.4 131.8 35.2 129 37.9z" class="b"/><path d="M73.3 121c2.9-2.9 7.5-3.1 10.5 0 0.2 0.2 0.5 0.6 0.7 0.8 0.3 0.3 0.2 0.8-0.1 1l-7.2 7.2c1.2 1.1 3.5 1.4 5.2-0.3 0.9-0.9 1.4-2 1.5-2.9 0.1-0.5 0.3-0.8 0.7-0.7l2.5 0.2c0.4 0 0.8 0.3 0.7 0.8 -0.1 1.8-0.8 3.9-2.7 5.8 -3.4 3.4-8.5 3.1-11.7-0.1C70.2 129.5 69.9 124.4 73.3 121zM79.8 123.6c-1.1-1-2.9-0.9-4 0.1 -1.1 1.1-1.2 2.9-0.3 4.1L79.8 123.6z" class="c"/><path d="M80.4 115.8c-0.5-0.2-0.7-0.6-0.3-1.1l2.5-2.5c0.3-0.3 0.6-0.3 0.8-0.2l7.6 3c0 0 0.1-0.1 0.1-0.1l-2.8-7.7c-0.1-0.4 0.1-0.7 0.4-1l2.2-2.2c0.4-0.4 0.9-0.3 1.1 0.3l5.5 15.8c0.1 0.2 0.1 0.5-0.2 0.8l-0.1 0.1c-0.3 0.3-0.5 0.3-0.8 0.2L80.4 115.8z" class="c"/><path d="M97.7 96.6c2.9-2.9 7.5-3.1 10.5 0 0.2 0.2 0.5 0.6 0.7 0.8 0.3 0.3 0.2 0.8-0.1 1l-7.2 7.2c1.2 1.1 3.5 1.4 5.2-0.3 0.9-0.9 1.4-2 1.5-2.9 0.1-0.5 0.3-0.8 0.7-0.7l2.5 0.2c0.4 0 0.8 0.3 0.7 0.8 -0.1 1.8-0.8 3.9-2.7 5.8 -3.4 3.4-8.5 3.1-11.7-0.1C94.6 105.1 94.3 100 97.7 96.6zM104.2 99.2c-1.1-1-2.9-0.9-4 0.1 -1.1 1.1-1.2 2.9-0.3 4.1L104.2 99.2z" class="c"/><path d="M106.2 89.8c-0.3-0.3-0.3-0.8 0-1.1l1.1-1.1c0.3-0.3 0.5-0.3 0.8-0.1l1.4 0.6c0-0.9 0.1-3.5 2.3-5.7 3.6-3.6 7.7-2.3 10.7 0.6l5.4 5.4c0.3 0.3 0.3 0.8 0 1.1l-2.3 2.3c-0.3 0.3-0.8 0.3-1.1 0l-5.6-5.6c-1.5-1.5-3.2-1.6-4.5-0.3 -1.5 1.5-1.4 3.4-0.9 4.4l6.2 6.2c0.4 0.4 0.4 0.7-0.2 1.2l-2.1 2.1c-0.3 0.3-0.8 0.3-1.1 0L106.2 89.8z" class="c"/><path d="M123.8 77l-1 1c-0.3 0.3-0.8 0.3-1 0l-1.9-1.9c-0.3-0.3-0.3-0.8 0-1l1-1 -3.1-3.1c-0.3-0.3-0.3-0.8 0-1.1l2.3-2.3c0.3-0.3 0.8-0.3 1 0l3.2 3.2 2.5-2.5c0.3-0.3 0.8-0.3 1.1 0l1.9 1.9c0.3 0.3 0.3 0.8 0 1.1l-2.5 2.5 4.5 4.5c0.8 0.8 1.3 0.5 1.8 0 0.5-0.5 0.9-1.3 1.1-1.7 0.2-0.4 0.6-0.5 0.9-0.3l2.3 1.2c0.4 0.2 0.5 0.6 0.4 1 -0.1 0.2-1.2 2.7-2.6 4.1 -2.2 2.2-4.5 1.8-6.8-0.5L123.8 77z" class="c"/><path d="M91.7 131.2c-0.3-0.3-0.3-0.8 0-1.1l2.4-2.4c0.3-0.3 0.8-0.3 1.1 0l8.2 8.2c0.3-0.7 0.9-1.9 2-3 3.4-3.4 8.2-3 11.5 0.3 3.3 3.3 3.6 8.3 0.5 11.4 -2.4 2.4-5.4 2-5.4 2l0.6 1.2c0.2 0.4 0.3 0.8 0 1.1l-1.1 1.1c-0.3 0.3-0.8 0.3-1.1 0L91.7 131.2zM113.9 142c1.5-1.5 1.3-3.9-0.3-5.5 -1.6-1.6-4-1.7-5.6-0.1 -1.4 1.4-1.6 2.9-1.6 2.9l3.3 3.3C110.5 143 112.4 143.5 113.9 142z" class="c"/><path d="M107.5 119.3c-1.1-1.1-1.1-2.8 0-3.9 1.1-1.1 2.9-1.1 3.9 0 1.1 1.1 1.1 2.8 0 3.9C110.3 120.4 108.6 120.4 107.5 119.3zM114.3 125.6c-0.3-0.3-0.3-0.8 0-1.1l2.3-2.3c0.3-0.3 0.8-0.3 1.1 0l10.2 10.2c0.3 0.3 0.3 0.8 0 1.1l-2.3 2.3c-0.3 0.3-0.8 0.3-1.1 0L114.3 125.6z" class="c"/><path d="M124.1 120.6l-1 1c-0.3 0.3-0.8 0.3-1 0l-1.9-1.9c-0.3-0.3-0.3-0.8 0-1l1-1 -3.1-3.1c-0.3-0.3-0.3-0.8 0-1.1l2.3-2.3c0.3-0.3 0.8-0.3 1 0l3.2 3.2 2.5-2.5c0.3-0.3 0.8-0.3 1.1 0l1.9 1.9c0.3 0.3 0.3 0.8 0 1.1l-2.5 2.5 4.5 4.5c0.8 0.8 1.3 0.5 1.8 0 0.5-0.5 0.9-1.3 1.1-1.7 0.2-0.4 0.6-0.5 0.9-0.3l2.3 1.2c0.4 0.2 0.5 0.6 0.4 1 -0.1 0.2-1.2 2.7-2.6 4.1 -2.2 2.2-4.5 1.8-6.8-0.5L124.1 120.6z" class="c"/><path d="M135 103.3c2.9-2.9 7.5-3.1 10.5 0 0.2 0.2 0.5 0.6 0.7 0.8 0.3 0.3 0.2 0.8-0.1 1l-7.2 7.2c1.2 1.1 3.5 1.4 5.2-0.3 0.9-0.9 1.4-2 1.5-2.9 0.1-0.5 0.3-0.8 0.7-0.7l2.5 0.2c0.4 0 0.8 0.3 0.7 0.8 -0.1 1.8-0.8 3.9-2.7 5.8 -3.4 3.4-8.5 3.1-11.7-0.1C131.9 111.8 131.6 106.6 135 103.3zM141.5 105.8c-1.1-1-2.9-0.9-4 0.1 -1.1 1.1-1.2 2.9-0.3 4.1L141.5 105.8z" class="c"/></svg>