<svg xmlns="http://www.w3.org/2000/svg" viewBox="0 0 466.56 466.56"><defs><style>.cls-1{fill:#ebebeb;}.cls-1,.cls-10,.cls-3,.cls-4,.cls-5,.cls-6{fill-rule:evenodd;}.cls-2,.cls-6{fill:#e19c95;}.cls-2{stroke:#a3706a;}.cls-10,.cls-2,.cls-9{stroke-miterlimit:10;stroke-width:5px;}.cls-3,.cls-9{fill:none;}.cls-4{fill:#9e706c;}.cls-5{fill:#a3cedb;}.cls-7{fill:#b3e2f0;}.cls-8{fill:#acd8e5;}.cls-10,.cls-9{stroke:#63879b;}.cls-10{fill:#fff;}</style></defs><title>Asset 3</title><g id="Layer_2" data-name="Layer 2"><g id="Layer_1-2" data-name="Layer 1"><path class="cls-1" d="M233.28,0C362.12,0,466.56,104.44,466.56,233.28S362.12,466.56,233.28,466.56,0,362.12,0,233.28,104.44,0,233.28,0Z"/><path class="cls-2" d="M329,114.67a14.91,14.91,0,0,1-5.44-1A15.09,15.09,0,0,1,296,120.79l-.27,0a15.08,15.08,0,0,1-29.16.77,15.1,15.1,0,0,1-25.74-8.87l-.28-.15a15.05,15.05,0,0,1-16.82-2.91l-55,55L301.27,297.2l99.27-99.27s-14.74-13.43.51-28.68L340.81,109A15.09,15.09,0,0,1,329,114.67Z"/><path class="cls-3" d="M281.07,327.24l35.3-35.3L174,149.56l-35.3,35.3,54.9,19.6,16.29,51.59,51.59,16.29Z"/><path class="cls-3" d="M269,339.36l35.3-35.3L161.87,161.68,126.57,197l54.9,19.6,16.3,51.59,51.59,16.29Z"/><path class="cls-4" d="M288.53,133.4c-6,3.38-22.84,9.73-24.67,3.46-2.74,2.77-4.87-8.21-9.08-8.21-4.9,0-9.94-3-12.8-6.68L141.17,222.78a2.39,2.39,0,0,0,0,3.39l98.6,98.6a2.39,2.39,0,0,0,3.39,0l124-124a3.71,3.71,0,0,0,0-4.81l-71-69.44C293.28,130.85,291.79,131.55,288.53,133.4Z"/><polygon class="cls-5" points="187.93 210.12 204.23 261.71 255.82 278 273.72 328.14 302.85 299.01 166.91 163.08 137.78 192.22 187.93 210.12"/><path class="cls-6" d="M280.55,135c-6.52,0-13.42-3.15-15.16-9.11-2.6,2.63-4.85,2.94-8.84,2.94-4.66,0-7.21-1-11.27-3.65l-97.75,97.73a2.28,2.28,0,0,0,0,3.22l93,93a2.29,2.29,0,0,0,3.23,0L360.83,200.6a2.28,2.28,0,0,0,0-3.22l-67.75-67.12A18,18,0,0,1,280.55,135Z"/><rect class="cls-7" x="129.41" y="179.44" width="121.91" height="192.24" transform="translate(-139.1 215.32) rotate(-45)"/><polygon class="cls-7" points="48.23 281.76 63.17 283.12 78.78 285.15 80.48 300.43 82.17 315.7 97.79 317.74 113.06 319.44 114.76 334.71 116.12 349.64 131.73 351.68 146.66 353.04 148.7 368.65 150.4 383.92 165.33 385.28 180.6 386.98 182.3 402.25 184.17 417.69 203.29 398.57 67.36 262.64 48.23 281.76"/><rect class="cls-8" x="132.85" y="228.52" width="16.89" height="192.24" transform="translate(-188.17 194.99) rotate(-45)"/><polygon class="cls-9" points="79.85 250.46 67.91 262.4 48.78 281.53 63.72 282.88 79.33 284.92 81.03 300.19 82.72 315.47 98.34 317.5 113.61 319.2 115.31 334.47 116.67 349.41 132.28 351.44 147.21 352.8 149.25 368.42 150.95 383.69 165.88 385.05 181.15 386.74 182.85 402.02 184.72 417.46 203.84 398.34 215.78 386.4 301.99 300.19 166.05 164.26 79.85 250.46"/><path class="cls-10" d="M281.07,327.24l35.3-35.3L174,149.56l-35.3,35.3,54.9,19.6,16.29,51.59,51.59,16.29Z"/></g></g></svg>